<svg version="1.1" xmlns="http://www.w3.org/2000/svg" x="0" y="0" viewBox="0 0 128 128" xml:space="preserve"><circle fill="#FFFFFF" cx="64" cy="64" r="63"/><path fill="#CCDDE7" d="M119 55.8c0 .9-.6 1.6-1.4 1.8l-29.8 8.2-18.4-18.4 1-1.6 19.8-28.3c.5-.8 1.4-1 2.2-.7a42 42 0 0 1 26.6 39z"/><path fill="#168FD6" d="M80 73.8c-.4 1.3-2.1 10.4-2.5 12 0 .7-.6 1.2-1.3 1.4l-33.6 8.1a2 2 0 0 1-2.7-2.6L48 59c.2-.7.8-1.3 1.5-1.4l12-2.4 18.4 18.5z"/><path opacity=".1" d="m70.7 64.5 9.2 9.2-.4 2.2-20.2-20.2 2.2-.4 9.2 9.2zm19.2.8-2 .5-18.5-18.4 1-1.6L90 65.3z"/><path fill="#044388" d="M80 73.7 61.5 55.3l7.9-8 18.4 18.5-7.8 8z"/><path fill="#FFF" d="M60.2 77.7 42.6 95.3a2 2 0 0 1-2.7-2.6L57.5 75a1.9 1.9 0 0 1 2.7 2.7z"/><path fill="#168FD6" d="M37 107.6C9.4 97.4 14.2 54.8 14.6 53.3a1.9 1.9 0 0 1 3.7.5c0 .4-5 39.7 19.4 50.2 1 .4 1.3 1.5 1 2.5-.4.7-1 1-1.7 1.1z"/><path fill="#168FD6" d="M33.2 107.6H18.3a1.9 1.9 0 1 1 0-3.7h15a1.9 1.9 0 1 1 0 3.7z"/><path fill="#CCDDE7" d="M20.2 105.7a5.6 5.6 0 1 1-11.2 0 5.6 5.6 0 0 1 11.2 0z"/><path fill="#168FD6" d="M94.7 107.6h-54a1.9 1.9 0 1 1 0-3.7h54a1.9 1.9 0 1 1 0 3.7z"/><path fill="#CCDDE7" d="M92.9 105.7a5.6 5.6 0 1 0 11.2 0 5.6 5.6 0 0 0-11.2 0z"/><path fill="#044388" d="M40.7 111.3c-11.2-.2-9.2 1.8-9.3-9.3 0-1 .8-1.9 1.8-1.9h7.5c1 0 1.8.9 1.8 1.9v7.5c0 1-.8 1.8-1.8 1.8zM20.2 59.1C9 59 11 61 10.9 49.8c0-1 .8-1.8 1.8-1.8h7.5c1 0 1.8.8 1.8 1.8v7.5c0 1-.8 1.8-1.8 1.8z"/></svg>