<svg version="1.1" xmlns="http://www.w3.org/2000/svg" x="0" y="0" viewBox="0 0 128 128" xml:space="preserve"><path fill="#FFF" d="M64 128A64 64 0 0 1 0 64 64 64 0 0 1 64 0a64 64 0 0 1 64 64 64 64 0 0 1-64 64z"/><path fill="#EA4335" d="M76.23 47.57H79l7.9-7.9.39-3.36a35.51 35.51 0 0 0-57.78 17.33 4.32 4.32 0 0 1 2.77-.17l15.8-2.61s.8-1.33 1.22-1.25a19.72 19.72 0 0 1 26.98-2.05l-.05.01z"/><path fill="#4285F4" d="M98.16 53.64a35.65 35.65 0 0 0-10.73-17.3L76.34 47.43a19.74 19.74 0 0 1 7.24 15.64v1.97a9.87 9.87 0 0 1 0 19.74H63.84l-1.97 2v11.84l1.97 1.97h19.74a25.68 25.68 0 0 0 14.58-46.95z"/><path fill="#34A853" d="M44.07 100.47h19.74v-15.8H44.07c-1.41 0-2.8-.3-4.08-.89l-2.77.86-7.96 7.9-.69 2.77a25.56 25.56 0 0 0 15.5 5.16z"/><path fill="#FBBC05" d="M44.07 49.2a25.67 25.67 0 0 0-15.5 46.03l11.45-11.45a9.86 9.86 0 1 1 13.06-13.06l11.45-11.45A25.64 25.64 0 0 0 44.07 49.2z"/></svg>