<svg version="1.1" xmlns="http://www.w3.org/2000/svg" x="0" y="0" viewBox="0 0 128 128" xml:space="preserve"><path fill="#001E36" d="M28.8 10.1h71c10.8 0 19.5 8.8 19.5 19.5V98c0 10.8-8.7 19.5-19.5 19.5h-71A19.5 19.5 0 0 1 9.3 97.9V29.6c0-10.8 8.7-19.5 19.5-19.5z"/><g fill="#31A8FF"><path d="M34 85.4V38.2c0-.3.2-.5.5-.5h2.6l3.5-.2h8.1c3.8 0 7 .4 9.5 1.3 2.3.8 4.4 2 6.1 3.8 1.5 1.5 2.6 3.2 3.4 5.2.6 2 1 4 1 6 0 4-1 7.2-2.7 9.7a15.7 15.7 0 0 1-7.4 5.6 29.6 29.6 0 0 1-10.3 1.6H46l-2-.1v14.7c0 .3-.2.6-.5.6H34.6c-.4 0-.5-.1-.5-.5zm10-38.9V62l1.8.1h2.5c1.8 0 3.5-.2 5.2-.8a7.8 7.8 0 0 0 3.8-2.4 7 7 0 0 0 1.4-4.7c0-1.5-.3-2.9-1-4.1a6.6 6.6 0 0 0-3.2-2.6c-1.7-.7-3.6-1-5.5-1h-3l-2 .1zM97.3 59.1a24 24 0 0 0-9.5-2.2 9 9 0 0 0-2.8.4c-.6.1-1 .5-1.4 1-.2.3-.4.8-.4 1.2 0 .4.2.8.5 1.2.4.4 1 .9 1.6 1.2l3.2 1.5c2.5.8 4.9 2 7 3.4 1.6 1 2.8 2.2 3.7 3.8.7 1.4 1 3 1 4.7a10.7 10.7 0 0 1-6.9 10.1A21 21 0 0 1 85 87a31 31 0 0 1-10.9-2c-.3-.2-.5-.6-.5-1V76c0-.1 0-.3.2-.4h.4a21.2 21.2 0 0 0 11 3c1.8 0 3-.2 3.9-.7.7-.3 1.2-1 1.2-1.9 0-.6-.3-1.2-1-1.8-.8-.6-2.3-1.3-4.6-2.2-2.3-.8-4.5-1.9-6.5-3.3-1.4-1-2.6-2.3-3.5-3.9A10.8 10.8 0 0 1 80 50.4c2.2-1 5-1.6 8.2-1.6 1.9 0 3.8.1 5.7.4 1.3.2 2.7.6 3.9 1l.5.5v8c0 .2 0 .4-.2.5h-.8z"/></g></svg>