<svg version="1.1" xmlns="http://www.w3.org/2000/svg" x="0" y="0" viewBox="0 0 128 128" xml:space="preserve"><path fill="#300" d="M28.5 10.4h71c10.8 0 19.5 8.7 19.5 19.5v68.3c0 10.7-8.7 19.4-19.5 19.4h-71A19.5 19.5 0 0 1 9 98.2V29.8c0-10.7 8.7-19.4 19.5-19.4z"/><path fill="#FF9A00" d="M62.2 74.5h-17l-3.6 10.8c0 .4-.4.7-.8.7h-8.6c-.5 0-.7-.3-.5-.9l14.7-42.5.5-1.5.2-3c0-.2.2-.4.4-.4h11.9c.3 0 .5 0 .6.3l16.7 47.2c.1.5 0 .7-.5.7h-9.5c-.4.1-.7-.1-.8-.5l-3.7-10.9zm-14.4-9.3h11.6L57.1 58l-1.3-4.2-1.2-4.1-1-3.6h-.1l-1.6 6-2.1 6.7c-.6 2.4-1.3 4.5-2 6.4zm39.1-19.5c-1.5 0-3-.6-4-1.6a6 6 0 0 1-1.6-4.3c0-1.5.5-3 1.6-4s2.6-1.6 4.1-1.6c1.6-.1 3 .5 4.2 1.6 1 1 1.5 2.5 1.5 4 0 1.6-.5 3.1-1.6 4.3a5.5 5.5 0 0 1-4.2 1.6zm-5.1 39.8V50.2c0-.5.2-.7.6-.7h9c.5 0 .7.2.7.7v35.2c0 .5-.2.8-.6.8h-9c-.5 0-.7-.3-.7-.8z"/></svg>