<svg version="1.1" xmlns="http://www.w3.org/2000/svg" x="0" y="0" viewBox="0 0 128 128" xml:space="preserve"><circle fill="#FFF" cx="64" cy="64" r="64"/><path fill="#2AC64B" d="M30.88 47.57c-1.23-.56-2.3-1-3.17-1.32a57.12 57.12 0 0 1-.4-4.13c-.07-1.14-.03-2.26.11-3.36.74.12 1.79.31 3.1.56-.13 1.56-.14 3.2 0 4.94.08 1.11.2 2.22.36 3.31zm12.2 7.21a71.25 71.25 0 0 0-8.6-5.43 41.04 41.04 0 0 1-.54-9.31c2.36.52 5.14 1.19 8.2 2.04-.2 4.01.18 8.31.94 12.7zm32.06 1.67-.11 1.05a46.42 46.42 0 0 0-12.32 9.27 59.3 59.3 0 0 0-3.39 3.93 107.99 107.99 0 0 0-3.69-4.42c-.59-.66-1.17-1.31-1.77-1.94-.98-6.57-1.6-13.04-1.72-19.12 7.59 2.7 15.79 6.35 23 11.23z"/><path fill="#008A5A" d="M31.81 32.95a27.94 27.94 0 0 0-1.3 6.38c-1.31-.25-2.36-.44-3.1-.56.08-.69.21-1.38.36-2.05a40.97 40.97 0 0 1 4.04-3.77z"/><path fill="#009550" d="M46.66 24.58c-2.24 4.12-4.04 9.66-4.5 17.07l-.02.43a159.2 159.2 0 0 0-8.2-2.04l.02-.3a26.02 26.02 0 0 1 3.17-10.6 49.78 49.78 0 0 1 9.53-4.56z"/><path fill="#00983E" d="M75.14 56.45c-7.21-4.87-15.4-8.53-22.99-11.22-.15-7.23.42-13.88 1.91-19.39l.13-.45c6.02 3.56 13.86 7.52 21.31 9.27.64 6.56.44 14.02-.36 21.79z"/><path fill="#009A37" d="M100.69 42.12a56.36 56.36 0 0 1-1.3 9.1c-.86.03-1.85.09-2.95.18.48-2.33.84-4.71 1.03-7.14a28.05 28.05 0 0 0-5.04-18.74c.9.25 1.74.5 2.54.75 3.44 4.35 6.09 9.94 5.72 15.85zm-7.63 9.68c-2.39.34-5.09.88-7.94 1.69.65-4.1.94-8.11.71-11.85-.52-8.52-2.83-14.59-5.54-18.84 2.55.42 4.98.92 7.21 1.44a27.04 27.04 0 0 1 6.54 15.5c.28 3.85-.13 7.96-.98 12.06z"/><path fill="#00863F" d="M75.49 34.65c-7.45-1.74-15.29-5.71-21.31-9.27.32-1.1.67-2.1 1.06-3.01 1.1-.19 2.24-.34 3.41-.46 4.7-.48 9.4-.43 13.87-.07a26.7 26.7 0 0 1 1.42 3.99 53.85 53.85 0 0 1 1.55 8.82z"/><path fill="#06CBF6" d="M43.34 17.87c-.25.15-8.25 5.08-11.53 15.07a40.74 40.74 0 0 0-4.03 3.77c2.17-9.43 10.85-17.13 15.56-18.84zm5.07 3.89c-.6.86-1.19 1.79-1.74 2.82a49.78 49.78 0 0 0-9.53 4.56 31.14 31.14 0 0 1 8.17-9.5 95.6 95.6 0 0 0 3.1 2.12z"/><linearGradient id="a" gradientUnits="userSpaceOnUse" x1="13980.71" y1="-9048.67" x2="14156.7" y2="-9054" gradientTransform="matrix(.253 0 0 -.253 -3489.59 -2270.5)"><stop offset="0" stop-color="#0288f7"/><stop offset="1" stop-color="#2ee2bd"/></linearGradient><path fill="url(#a)" d="m94.98 26.27-2.54-.75c-3.61-5.14-7.8-7.65-7.8-7.65 2.78 1 6.95 4.1 10.34 8.4zm-7.48-2.02c-2.23-.52-4.66-1.02-7.21-1.44-4.58-7.19-10.34-9.24-10.62-9.33 6.17 1.23 12.97 5.03 17.83 10.77zm-14.98-2.41a75.7 75.7 0 0 0-13.87.07 51 51 0 0 0-3.41.46c3.3-7.79 8.68-8.9 8.68-8.9h.15s5.14 1.06 8.45 8.37zm-14.2-8.37c-.27.09-5.47 1.94-9.92 8.29-1.27-.84-2.33-1.57-3.1-2.12 4.06-3.17 8.7-5.3 13.02-6.17z"/><path fill="#666565" d="M64 114.53h5.52l2.04-8.92H56.43l2.04 8.92H64z"/><linearGradient id="b" gradientUnits="userSpaceOnUse" x1="13994.18" y1="-9308.08" x2="13950.89" y2="-9201.03" gradientTransform="matrix(.253 0 0 -.253 -3489.59 -2270.5)"><stop offset="0" stop-color="#cb1918"/><stop offset=".39" stop-color="#a2183d"/><stop offset=".75" stop-color="#902869"/><stop offset="1" stop-color="#73358a"/></linearGradient><path fill-rule="evenodd" clip-rule="evenodd" fill="url(#b)" d="M43.14 74.62a156.6 156.6 0 0 0 2.95 5.79c1.5 2.8 2.92 5.18 4.39 7.35.42-1.49.95-3.05 1.61-4.67a165.92 165.92 0 0 1-3.37-8.34 116.6 116.6 0 0 1-5.64-19.97 71.25 71.25 0 0 0-8.6-5.43c1.46 9.03 5.3 18.33 8.66 25.27z"/><linearGradient id="c" gradientUnits="userSpaceOnUse" x1="13972.3" y1="-9316.93" x2="13929.01" y2="-9209.88" gradientTransform="matrix(.253 0 0 -.253 -3489.59 -2270.5)"><stop offset="0" stop-color="#cb1918"/><stop offset=".39" stop-color="#a2183d"/><stop offset=".75" stop-color="#902869"/><stop offset="1" stop-color="#73358a"/></linearGradient><path fill-rule="evenodd" clip-rule="evenodd" fill="url(#c)" d="M38.15 74.5a113.44 113.44 0 0 0 11.53 16.47c.09-.45.2-.92.32-1.39a150.92 150.92 0 0 1-9.55-15.02c-3.92-7.15-8.11-16.6-9.56-26.98-1.23-.56-2.3-.99-3.17-1.32 1.24 9.3 4.8 18.44 10.43 28.24z"/><linearGradient id="d" gradientUnits="userSpaceOnUse" x1="14032.41" y1="-9292.63" x2="13989.11" y2="-9185.57" gradientTransform="matrix(.253 0 0 -.253 -3489.59 -2270.5)"><stop offset="0" stop-color="#cb1918"/><stop offset=".39" stop-color="#a2183d"/><stop offset=".75" stop-color="#902869"/><stop offset="1" stop-color="#73358a"/></linearGradient><path fill-rule="evenodd" clip-rule="evenodd" fill="url(#d)" d="M54.41 67.8a180.68 180.68 0 0 0 1.49 7.77 53.58 53.58 0 0 1 3.41-4.88 104 104 0 0 0-3.69-4.42c-.59-.66-1.17-1.31-1.77-1.93.18 1.15.36 2.31.56 3.46z"/><path fill-rule="evenodd" clip-rule="evenodd" fill="#97CC1A" d="M96.45 51.41a79.36 79.36 0 0 1-6.51 18.55l1.55 1.59c3.75-6.97 6.42-13.64 7.9-20.32-.85.03-1.84.08-2.94.18zM85.13 53.5a93.1 93.1 0 0 1-2.15 9.86c1.55 1.4 3.25 2.97 4.91 4.57a89.94 89.94 0 0 0 5.18-16.13c-2.4.35-5.1.88-7.94 1.7z"/><linearGradient id="e" gradientUnits="userSpaceOnUse" x1="14121.38" y1="-9232.03" x2="14058.55" y2="-9300.65" gradientTransform="matrix(.253 0 0 -.253 -3489.59 -2270.5)"><stop offset="0" stop-color="#add816"/><stop offset="1" stop-color="#dbd704"/></linearGradient><path fill-rule="evenodd" clip-rule="evenodd" fill="url(#e)" d="M62.71 66.77a59.3 59.3 0 0 0-3.39 3.93 105.94 105.94 0 0 1 10.24 15.56c.88-3.39 1.79-7.14 2.6-10.99a178.5 178.5 0 0 0 2.87-17.78 46.1 46.1 0 0 0-12.32 9.28zm27.23 3.18-.3.62c-2.98 6.01-6.11 10.83-8.08 13.88a177.41 177.41 0 0 1-7.79 10.78l.25.66c3.77-4.11 9.4-10.73 13.96-18.21 1.14-1.88 2.21-3.73 3.21-5.56l.31-.57a226.8 226.8 0 0 0-1.56-1.6zm-6.97-6.59-.12.43a159.16 159.16 0 0 1-10.78 27.53l1.03 2.31a72.45 72.45 0 0 0 8.81-13.21c1.62-3.03 3.71-7.16 5.71-11.86l.26-.62a174.96 174.96 0 0 0-4.91-4.58z"/><linearGradient id="f" gradientUnits="userSpaceOnUse" x1="14073.87" y1="-9363.88" x2="14020.39" y2="-9273.69" gradientTransform="matrix(.253 0 0 -.253 -3489.59 -2270.5)"><stop offset="0" stop-color="#e1282b"/><stop offset=".39" stop-color="#e3402a"/><stop offset=".7" stop-color="#e76226"/><stop offset="1" stop-color="#f19a0a"/></linearGradient><path fill-rule="evenodd" clip-rule="evenodd" fill="url(#f)" d="M66.9 100.4c2.35-2.44 4.37-4.6 6.19-6.78-.3-.71-.65-1.48-1.03-2.31-2.46 4.94-4.47 8.3-5.16 9.09z"/><linearGradient id="g" gradientUnits="userSpaceOnUse" x1="14077.28" y1="-9361.85" x2="14023.81" y2="-9271.67" gradientTransform="matrix(.253 0 0 -.253 -3489.59 -2270.5)"><stop offset="0" stop-color="#e1282b"/><stop offset=".39" stop-color="#e3402a"/><stop offset=".7" stop-color="#e76226"/><stop offset="1" stop-color="#f19a0a"/></linearGradient><path fill-rule="evenodd" clip-rule="evenodd" fill="url(#g)" d="M69.79 100.25c.13-.12 1.79-1.72 4.22-4.37-.08-.21-.17-.42-.25-.66a225.65 225.65 0 0 1-3.97 5.03z"/><linearGradient id="h" gradientUnits="userSpaceOnUse" x1="14068.19" y1="-9367.24" x2="14014.71" y2="-9277.06" gradientTransform="matrix(.253 0 0 -.253 -3489.59 -2270.5)"><stop offset="0" stop-color="#e1282b"/><stop offset=".39" stop-color="#e3402a"/><stop offset=".7" stop-color="#e76226"/><stop offset="1" stop-color="#f19a0a"/></linearGradient><path fill-rule="evenodd" clip-rule="evenodd" fill="url(#h)" d="M55.91 75.58c2.78 13 6.59 24.92 6.59 24.92h3.01s1.93-6.06 4.05-14.24A104.1 104.1 0 0 0 59.32 70.7a50.4 50.4 0 0 0-3.41 4.88z"/><linearGradient id="i" gradientUnits="userSpaceOnUse" x1="14038.71" y1="-9384.72" x2="13985.23" y2="-9294.54" gradientTransform="matrix(.253 0 0 -.253 -3489.59 -2270.5)"><stop offset="0" stop-color="#e1282b"/><stop offset=".39" stop-color="#e3402a"/><stop offset=".7" stop-color="#e76226"/><stop offset="1" stop-color="#f19a0a"/></linearGradient><path fill-rule="evenodd" clip-rule="evenodd" fill="url(#i)" d="M50.47 87.76c3.04 4.51 6.24 8.1 10.62 12.64-1.02-1.17-4.97-8.04-9.01-17.31a49.1 49.1 0 0 0-1.61 4.67z"/><linearGradient id="j" gradientUnits="userSpaceOnUse" x1="14028.83" y1="-9390.58" x2="13975.35" y2="-9300.4" gradientTransform="matrix(.253 0 0 -.253 -3489.59 -2270.5)"><stop offset="0" stop-color="#e1282b"/><stop offset=".39" stop-color="#e3402a"/><stop offset=".7" stop-color="#e76226"/><stop offset="1" stop-color="#f19a0a"/></linearGradient><path fill-rule="evenodd" clip-rule="evenodd" fill="url(#j)" d="M49.68 90.97c4.59 5.49 8.34 9.1 8.53 9.28-.2-.25-4.34-5.34-8.21-10.68-.12.48-.23.95-.32 1.4z"/></svg>