<svg version="1.1" xmlns="http://www.w3.org/2000/svg" x="0" y="0" viewBox="0 0 128 128" xml:space="preserve"><path fill="#FE4A11" d="M76.34 0H51.89A51.99 51.99 0 0 0 0 51.89v24.46C0 104.91 23.31 128 51.89 128h24.23c28.57 0 51.89-23.09 51.89-51.66V51.89C128 23.31 104.69 0 76.34 0z"/><path fill="#FFF" d="m45.3 65.4 1.4.46c-2.33 1.4-4.19 3.26-6.05 5.36a8.7 8.7 0 0 1-3.96-7.45c0-3.03 1.4-5.82 3.96-7.45a22.19 22.19 0 0 0 6.05 5.35l-1.4.7c-1.39.93-1.39 2.1 0 3.03zm41.21 18.85-15.13-6.98h-.24l-14.66-.23c-.7 0-1.4.23-2.1.46l27.71 12.81c.93.23.46 1.39-.24 1.39L48.1 93.33s0 .24-.24 0V82.86a8.85 8.85 0 0 1 8.85-8.85l18.86-.23a10.1 10.1 0 0 0 10.01-10.01c0-5.36-4.43-10.01-10.01-10.01l-18.86-.24a8.84 8.84 0 0 1-8.85-8.84V34.2c0-.23.24-.23.24-.23l33.75 1.63c.7 0 .93 1.16.24 1.39L54.38 49.8c.7.23 1.4.46 2.1.46l14.66.24h.24l15.13-6.99c3.26-1.63 5.35-5.35 4.66-8.84a7.67 7.67 0 0 0-7.22-6.29l-35.62-1.63c-2.1 0-4.19.7-5.82 2.1a8.1 8.1 0 0 0-2.33 5.58v10.25a16.5 16.5 0 0 0 16.3 16.29l18.85.7c.7 0 1.4.23 1.87.7 1.63 1.4.46 4.42-1.87 4.42l-18.85.24c-9.08 0-16.3 7.45-16.3 16.29v10.25a8.1 8.1 0 0 0 2.33 5.58 8.92 8.92 0 0 0 5.82 2.1l35.62-1.86a7.94 7.94 0 0 0 7.22-6.29 8.01 8.01 0 0 0-4.66-8.85z"/></svg>