<?xml version="1.0" encoding="utf-8"?>
<!-- Generator: Adobe Illustrator 26.0.1, SVG Export Plug-In . SVG Version: 6.00 Build 0)  -->
<svg version="1.1" id="Layer_1" xmlns="http://www.w3.org/2000/svg" xmlns:xlink="http://www.w3.org/1999/xlink" x="0px" y="0px"
	 viewBox="0 0 24 24" style="enable-background:new 0 0 24 24;" xml:space="preserve">
<style type="text/css">
	.st0{opacity:0.25;fill:#FFFFFF;enable-background:new    ;}
	.st1{fill:#FFFFFF;}
</style>
<g>
	<path class="st0" d="M6.7,4.01h10.6c1.6,0.01,2.9,1.3,2.91,2.91V17.1c-0.01,1.6-1.3,2.9-2.91,2.91H6.7C5.1,20,3.8,18.7,3.79,17.1
		V6.91C3.8,5.31,5.1,4.01,6.7,4.01"/>
	<path class="st1" d="M11.73,13.57H9.18l-0.52,1.61c-0.02,0.06-0.07,0.1-0.13,0.1H7.25c-0.07,0-0.1-0.04-0.08-0.13l2.2-6.33
		l0.07-0.22C9.47,8.45,9.48,8.3,9.48,8.15c0-0.04,0.02-0.06,0.06-0.08h1.77c0.06,0,0.09,0.02,0.09,0.06l2.5,7.04
		c0.02,0.07,0,0.11-0.07,0.11H12.4c-0.06,0-0.09-0.03-0.11-0.08L11.73,13.57z M9.58,12.19h1.74l-0.16-0.49l-0.19-0.59l-0.2-0.63
		c-0.12-0.38-0.23-0.76-0.33-1.14h-0.01c-0.06,0.29-0.14,0.59-0.23,0.88l-0.31,1.01C9.79,11.58,9.69,11.9,9.58,12.19 M15.41,9.27
		c-0.22,0.01-0.45-0.08-0.6-0.24c-0.15-0.17-0.24-0.4-0.23-0.63c-0.01-0.23,0.08-0.45,0.24-0.6c0.17-0.16,0.37-0.24,0.6-0.24
		c0.26,0,0.47,0.08,0.62,0.24c0.15,0.18,0.23,0.38,0.22,0.6c0.01,0.23-0.08,0.46-0.24,0.63C15.88,9.19,15.65,9.28,15.41,9.27
		 M14.65,15.2V9.94c0-0.07,0.03-0.1,0.09-0.1h1.36c0.06,0,0.09,0.03,0.09,0.1v5.26c0,0.07-0.03,0.11-0.09,0.11h-1.34
		C14.68,15.31,14.65,15.27,14.65,15.2"/>
</g>
</svg>
