<?xml version="1.0" encoding="utf-8"?>
<!-- Generator: Adobe Illustrator 26.0.1, SVG Export Plug-In . SVG Version: 6.00 Build 0)  -->
<svg version="1.1" id="Layer_1" xmlns="http://www.w3.org/2000/svg" xmlns:xlink="http://www.w3.org/1999/xlink" x="0px" y="0px"
	 viewBox="0 0 24 24" style="enable-background:new 0 0 24 24;" xml:space="preserve">
<style type="text/css">
	.st0{opacity:0.25;fill:#FFFFFF;enable-background:new    ;}
	.st1{fill:#FFFFFF;}
</style>
<path class="st0" d="M6.7,4.01h10.6c1.6,0.01,2.9,1.3,2.91,2.91V17.1c-0.01,1.6-1.3,2.9-2.91,2.91H6.7C5.1,20,3.8,18.7,3.79,17.1
	V6.91C3.8,5.31,5.1,4.01,6.7,4.01"/>
<path class="st1" d="M7.49,15.22V8.19c0-0.05,0.02-0.07,0.07-0.08l0.38-0.01l0.52-0.01l0.6-0.01l0.62-0.01
	c0.56,0,1.02,0.07,1.4,0.21C11.43,8.4,11.74,8.59,12,8.84c0.22,0.22,0.38,0.48,0.5,0.78c0.11,0.29,0.16,0.58,0.16,0.89
	c0,0.59-0.14,1.07-0.41,1.45c-0.28,0.38-0.64,0.66-1.1,0.83c-0.47,0.17-0.98,0.23-1.54,0.23l-0.34-0.01l-0.29-0.01v2.2
	c0,0.05-0.03,0.08-0.08,0.1H7.57C7.51,15.31,7.49,15.28,7.49,15.22 M8.98,9.43v2.29l0.26,0.01h0.36c0.27,0,0.53-0.04,0.79-0.13
	c0.22-0.07,0.41-0.19,0.56-0.36c0.14-0.17,0.21-0.41,0.21-0.7c0-0.22-0.05-0.42-0.16-0.6c-0.11-0.18-0.28-0.32-0.48-0.39
	c-0.26-0.1-0.53-0.15-0.81-0.14C9.47,9.41,9.23,9.41,8.98,9.43 M16.92,11.31c-0.45-0.21-0.93-0.31-1.42-0.32
	c-0.14,0-0.28,0.01-0.41,0.05c-0.08,0.02-0.16,0.07-0.21,0.14c-0.04,0.06-0.06,0.12-0.06,0.19c0,0.1,0.03,0.13,0.07,0.18
	c0.06,0.07,0.14,0.14,0.23,0.19c0.16,0.08,0.32,0.16,0.49,0.22c0.37,0.13,0.72,0.29,1.05,0.5c0.23,0.14,0.41,0.33,0.54,0.57
	c0.11,0.22,0.16,0.45,0.16,0.7c0,0.32-0.09,0.63-0.26,0.91c-0.2,0.28-0.45,0.48-0.76,0.6c-0.33,0.14-0.75,0.22-1.24,0.22
	c-0.31,0-0.62-0.03-0.93-0.09c-0.24-0.04-0.47-0.11-0.7-0.22c-0.06-0.03-0.08-0.07-0.08-0.13v-1.19c0-0.02,0.01-0.04,0.03-0.06
	s0.04-0.02,0.06,0.01c0.26,0.16,0.55,0.27,0.85,0.33c0.26,0.07,0.53,0.1,0.81,0.1c0.25,0,0.45-0.03,0.57-0.1
	c0.11-0.06,0.18-0.16,0.19-0.29c0-0.1-0.06-0.19-0.17-0.27c-0.21-0.14-0.43-0.24-0.67-0.32c-0.35-0.13-0.67-0.29-0.97-0.49
	c-0.21-0.15-0.39-0.35-0.52-0.58c-0.11-0.21-0.17-0.45-0.16-0.7c0-0.3,0.08-0.57,0.23-0.83c0.18-0.28,0.42-0.49,0.72-0.63
	c0.38-0.17,0.79-0.25,1.21-0.24c0.28,0,0.57,0.02,0.85,0.06c0.2,0.03,0.4,0.08,0.59,0.16c0.03,0.01,0.05,0.03,0.07,0.06l0.01,0.08
	v1.11c0,0.03-0.01,0.06-0.03,0.07C16.99,11.33,16.95,11.33,16.92,11.31"/>
</svg>
