<svg xmlns="http://www.w3.org/2000/svg" viewBox="0 0 24 24" xml:space="preserve"><path d="M4.38.5h15.24a4.2 4.2 0 0 1 4.18 4.18v14.65a4.2 4.2 0 0 1-4.18 4.18H4.38A4.2 4.2 0 0 1 .2 19.33V4.68A4.2 4.2 0 0 1 4.38.5" fill="#fff" opacity=".25"/><path d="M5.51 16.63V6.52q0-.1.1-.11l.55-.01.75-.02.86-.02.89-.01q1.2 0 2.02.3.75.26 1.32.81.47.48.72 1.12.23.62.23 1.28 0 1.27-.59 2.09-.6.83-1.58 1.2c-.67.25-1.41.33-2.21.33l-.49-.01-.42-.01v3.16q0 .11-.11.14H5.63q-.12 0-.12-.13M7.66 8.3v3.3l.38.02h.52q.58 0 1.13-.18.47-.15.81-.52.3-.37.3-1.01.01-.47-.23-.87a1.4 1.4 0 0 0-.69-.56 3 3 0 0 0-1.16-.2 14 14 0 0 0-1.06.02m11.42 2.71a5 5 0 0 0-2.04-.46q-.3-.01-.59.07a.5.5 0 0 0-.3.2q-.08.13-.08.27c0 .14.04.18.1.26q.14.16.33.27.34.18.7.32.8.27 1.51.72.49.31.78.82.24.47.23 1.01 0 .7-.38 1.31-.43.6-1.1.87-.72.31-1.78.31-.67 0-1.34-.13a4 4 0 0 1-1-.31q-.12-.06-.11-.19v-1.71q0-.05.04-.09t.09.01q.57.34 1.22.48.57.15 1.16.15.55 0 .82-.14a.5.5 0 0 0 .27-.41q0-.21-.24-.39a4 4 0 0 0-.96-.46q-.75-.27-1.4-.71-.46-.33-.75-.84a2 2 0 0 1-.23-1q0-.64.33-1.19.39-.6 1.03-.9a4 4 0 0 1 1.74-.34q.61 0 1.22.09.44.06.85.23.06.02.1.09l.02.12v1.6q0 .07-.05.1-.14 0-.19-.03" fill="#fff"/></svg>