<svg xmlns="http://www.w3.org/2000/svg" viewBox="0 0 24 24" xml:space="preserve"><g fill="#FFF"><path opacity=".25" d="M4.38.5h15.24a4.2 4.2 0 0 1 4.18 4.18v14.65a4.2 4.2 0 0 1-4.18 4.18H4.38A4.2 4.2 0 0 1 .2 19.33V4.68A4.2 4.2 0 0 1 4.38.5"/><path d="M11.61 14.26H7.95l-.75 2.31a.2.2 0 0 1-.19.14H5.17q-.16 0-.11-.18l3.16-9.11.1-.32q.06-.31.06-.64 0-.08.08-.11h2.55q.12 0 .13.08l3.59 10.12q.05.16-.1.16h-2.05q-.12 0-.16-.11zm-3.09-1.99h2.5l-.23-.71-.27-.85-.29-.9a21 21 0 0 1-.47-1.64h-.02q-.13.63-.33 1.27l-.45 1.45q-.21.75-.44 1.38m8.39-4.2c-.32.01-.64-.12-.87-.34a1.3 1.3 0 0 1-.33-.9c-.01-.33.12-.65.35-.87q.37-.34.87-.34.57 0 .89.34.33.38.32.87c.01.33-.11.66-.34.9-.22.23-.55.36-.89.34m-1.1 8.53V9.03q0-.15.13-.14h1.95q.13 0 .13.14v7.57q0 .16-.13.16h-1.93q-.15 0-.15-.16"/></g></svg>