<svg xmlns="http://www.w3.org/2000/svg" viewBox="0 0 24 24" xml:space="preserve"><path d="M23.5 11.7c-.02-9.33.02-8.47-.38-9.25A3.5 3.5 0 0 0 20.68.58C20.27.49 3.6.51 3.22.59A3.5 3.5 0 0 0 .59 3.12c-.09.35-.09.54-.09 8.9 0 8.4 0 8.54.1 8.89.09.34.32.84.51 1.13a3.6 3.6 0 0 0 2.01 1.35c.32.08.73.09 8.83.09 8.38 0 8.51 0 8.88-.09a3.4 3.4 0 0 0 2.62-2.95c.05-.31.06-2.81.05-8.74m-4.41 1.6c-.02 1.97-.02 2.13-.12 2.47a4.3 4.3 0 0 1-1.12 1.98 4.2 4.2 0 0 1-2.6 1.33c-.59.08-6.4.06-6.87-.03a4.4 4.4 0 0 1-3.32-3c-.2-.64-.22-1.11-.2-4.34.02-2.57.03-3.02.1-3.3a4.5 4.5 0 0 1 2.74-3.2c.75-.3 1.24-.34 3.44-.32 1.4.02 1.82.04 2.01.09q1.17.35 2.08 1.29a4 4 0 0 1 1.3 2.9c0 .55.09.75.41.94.2.12.27.13.91.16.38.02.74.06.79.09.18.1.34.33.4.59.06.17.07.87.05 2.35m-9.93-3.08c-.53-.15-.73-.9-.34-1.3.25-.25.32-.26 1.87-.26 1.39 0 1.44 0 1.65.11q.44.2.42.7 0 .44-.39.69c-.14.09-.23.1-1.6.11-.84-.01-1.51-.02-1.61-.05m-.07 5.1a1 1 0 0 1-.47-.62 1 1 0 0 1 .26-.71c.23-.2.32-.21 3.09-.21 2.85 0 2.83 0 3.1.25.38.36.3.99-.16 1.25l-.47.08-2.46.03c-2.16.02-2.78-.02-2.89-.07" fill="#fff"/></svg>