<?xml version="1.0" encoding="utf-8"?>
<!-- Generator: Adobe Illustrator 26.0.1, SVG Export Plug-In . SVG Version: 6.00 Build 0)  -->
<svg version="1.1" id="Layer_1" xmlns="http://www.w3.org/2000/svg" xmlns:xlink="http://www.w3.org/1999/xlink" x="0px" y="0px"
	 viewBox="0 0 24 24" style="enable-background:new 0 0 24 24;" xml:space="preserve">
<style type="text/css">
	.st0{fill:#FFFFFF;}
</style>
<path class="st0" d="M20.01,11.79c-0.01-6.5,0.01-5.9-0.26-6.45c-0.34-0.67-0.96-1.15-1.7-1.3C17.76,3.98,6.15,3.99,5.88,4.05
	c-0.89,0.2-1.6,0.88-1.83,1.76c-0.06,0.24-0.06,0.38-0.06,6.2c0,5.85,0,5.95,0.07,6.2c0.06,0.24,0.22,0.59,0.36,0.79
	c0.34,0.47,0.84,0.8,1.4,0.94C6.04,19.99,6.32,20,11.97,20c5.84,0,5.93,0,6.19-0.06c0.98-0.23,1.72-1.05,1.83-2.06
	C20.01,17.67,20.02,15.92,20.01,11.79 M16.94,12.91c-0.01,1.37-0.01,1.48-0.08,1.72c-0.13,0.52-0.4,1-0.78,1.38
	c-0.47,0.52-1.12,0.84-1.81,0.93c-0.41,0.06-4.46,0.04-4.79-0.02c-1.09-0.22-1.98-1.02-2.31-2.09c-0.14-0.45-0.15-0.77-0.14-3.02
	c0.01-1.79,0.02-2.1,0.07-2.3C7.32,8.48,8.04,7.65,9,7.27c0.52-0.21,0.86-0.24,2.4-0.22c0.98,0.01,1.27,0.03,1.4,0.06
	c0.54,0.16,1.03,0.46,1.45,0.9c0.57,0.52,0.9,1.25,0.91,2.02c0,0.38,0.06,0.52,0.29,0.66c0.14,0.08,0.19,0.09,0.63,0.11
	c0.26,0.01,0.52,0.04,0.55,0.06c0.13,0.07,0.24,0.23,0.28,0.41C16.95,11.39,16.96,11.87,16.94,12.91 M10.02,10.76
	c-0.37-0.1-0.51-0.63-0.24-0.91c0.17-0.17,0.22-0.18,1.3-0.18c0.97,0,1,0,1.15,0.08c0.2,0.09,0.3,0.26,0.29,0.49
	c0,0.2-0.09,0.36-0.27,0.48c-0.1,0.06-0.16,0.07-1.12,0.08C10.56,10.79,10.09,10.78,10.02,10.76 M9.97,14.31
	c-0.16-0.09-0.28-0.25-0.33-0.43c-0.01-0.18,0.06-0.36,0.18-0.49c0.16-0.14,0.22-0.15,2.15-0.15c1.99,0,1.97,0,2.16,0.17
	c0.26,0.25,0.21,0.69-0.11,0.87l-0.33,0.06l-1.71,0.02C10.48,14.38,10.05,14.35,9.97,14.31"/>
</svg>
