<svg xmlns="http://www.w3.org/2000/svg" viewBox="0 0 24 24" xml:space="preserve"><path d="M14.21 14.11q-.02 1.66-2.23 1.68H9.75v-3.35h2.14q2.3.02 2.32 1.67M24 11.39v1.22c-1.13.11-1.82.94-2.23 2.27a14 14 0 0 0-.42 4.19 2.4 2.4 0 0 1-2.34 2.5H4.98a2.4 2.4 0 0 1-2.34-2.5c.04-1.25-.01-2.87-.42-4.19s-1.1-2.16-2.23-2.27v-1.22c1.13-.11 1.82-.94 2.23-2.27.41-1.32.47-2.93.43-4.18a2.4 2.4 0 0 1 2.34-2.5h14.03a2.4 2.4 0 0 1 2.34 2.5c-.04 1.25.01 2.87.42 4.19s1.09 2.15 2.22 2.26m-8.13 2.82c0-1.35-.95-2.33-2.37-2.49v-.06a2.3 2.3 0 0 0 1.86-2.21c0-1.54-1.21-2.54-3.06-2.54H8.13v10.17h4.18c2.22.01 3.56-1.08 3.56-2.87m-2.13-4.54c0-.94-.66-1.47-1.83-1.47H9.75v3.04h1.81c1.4 0 2.18-.56 2.18-1.57" fill="#fff"/></svg>