<?xml version="1.0" encoding="utf-8"?>
<!-- Generator: Adobe Illustrator 26.0.1, SVG Export Plug-In . SVG Version: 6.00 Build 0)  -->
<svg version="1.1" id="Layer_1" xmlns="http://www.w3.org/2000/svg" xmlns:xlink="http://www.w3.org/1999/xlink" x="0px" y="0px"
	 viewBox="0 0 30.26 24" style="enable-background:new 0 0 30.26 24;" xml:space="preserve">
<style type="text/css">
	.st0{fill:#FFFFFF;}
</style>
<g>
	<path class="st0" d="M14.99,12.54h-2.57v4.03h2.68c1.75,0,2.68-0.7,2.68-2.03S16.83,12.54,14.99,12.54z"/>
	<path class="st0" d="M26.88,8.54c-0.49-1.59-0.56-3.53-0.51-5.03c0.05-1.56-1.16-3.01-2.81-3.01H6.69c-1.65,0-2.87,1.44-2.81,3.01
		c0.05,1.5-0.02,3.45-0.51,5.03c-0.49,1.59-1.32,2.6-2.68,2.73v1.47c1.36,0.13,2.19,1.14,2.68,2.73c0.49,1.59,0.56,3.53,0.51,5.03
		c-0.05,1.56,1.16,3.01,2.81,3.01h16.88c1.65,0,2.87-1.44,2.81-3.01c-0.05-1.5,0.02-3.45,0.51-5.03c0.49-1.59,1.32-2.6,2.68-2.73
		v-1.47C28.2,11.14,27.37,10.13,26.88,8.54z M15.51,18.12h-5.03V5.88h5c2.22,0,3.68,1.2,3.68,3.05c0,1.3-0.98,2.46-2.23,2.66v0.07
		c1.7,0.19,2.85,1.36,2.85,2.99C19.78,16.81,18.17,18.12,15.51,18.12z"/>
	<path class="st0" d="M17.22,9.2c0-1.14-0.8-1.76-2.21-1.76h-2.59v3.65h2.18C16.29,11.09,17.22,10.41,17.22,9.2z"/>
</g>
</svg>
