<?xml version="1.0" encoding="utf-8"?>
<!-- Generator: Adobe Illustrator 26.0.1, SVG Export Plug-In . SVG Version: 6.00 Build 0)  -->
<svg version="1.1" id="Layer_1" xmlns="http://www.w3.org/2000/svg" xmlns:xlink="http://www.w3.org/1999/xlink" x="0px" y="0px"
	 viewBox="0 0 24 24" style="enable-background:new 0 0 24 24;" xml:space="preserve">
<style type="text/css">
	.st0{fill:#FFFFFF;}
</style>
<path class="st0" d="M11.9,12.37h-1.79v2.8h1.86c1.22,0,1.86-0.49,1.86-1.41S13.18,12.37,11.9,12.37z M20.17,9.59
	c-0.34-1.11-0.39-2.45-0.35-3.5C19.85,5.01,19.01,4,17.86,4H6.13c-1.15,0-2,1-1.95,2.09c0.03,1.04-0.01,2.4-0.35,3.5
	c-0.34,1.11-0.92,1.81-1.86,1.9v1.02c0.95,0.09,1.52,0.79,1.86,1.9s0.39,2.45,0.35,3.5C4.14,18.99,4.98,20,6.13,20h11.74
	c1.15,0,2-1,1.95-2.09c-0.03-1.04,0.01-2.4,0.35-3.5c0.34-1.11,0.92-1.81,1.86-1.9v-1.02C21.09,11.4,20.51,10.7,20.17,9.59z
	 M12.26,16.25h-3.5V7.74h3.48c1.54,0,2.56,0.83,2.56,2.12c0,0.9-0.68,1.71-1.55,1.85v0.05c1.18,0.13,1.98,0.95,1.98,2.08
	C15.23,15.34,14.11,16.25,12.26,16.25z M13.45,10.05c0-0.79-0.56-1.22-1.54-1.22h-1.8v2.54h1.52
	C12.81,11.36,13.45,10.89,13.45,10.05z"/>
</svg>
