<svg xmlns="http://www.w3.org/2000/svg" viewBox="0 0 24 24" xml:space="preserve"><path d="M10.6 0q-.7 0-2 .7a7 7 0 0 0-3.9 6.5c0 4.1 4 11.2 6.5 13.5 0 0-4.2-7-4.5-13s4-7.7 4-7.7m2.8 0s4.2 1.6 3.9 7.6-4.5 13-4.5 13c2.5-2.2 6.4-9.3 6.5-13.4a7 7 0 0 0-4-6.6zM12 0l-.5.2Q8.9 1.5 9 8.7q.3 4.9 2.5 12h.7q2.2-7.2 2.5-12Q15 1.5 12.5.2zM7 1S2.4 3 3.3 8.3a26 26 0 0 0 7.1 12.2c.5.5-5.9-6.5-6.5-12.7-.3-2.3.4-4.9 3-6.6m10.2 0a7 7 0 0 1 3 6.7c-.6 6.2-7 13.2-6.5 12.7a26 26 0 0 0 7.1-12.2c.9-5.3-3.6-7.1-3.6-7.1M10 22l.5 2.1h2.7l.5-2.1z" fill="#fff"/></svg>