<?xml version="1.0" encoding="utf-8"?>
<!-- Generator: Adobe Illustrator 26.0.1, SVG Export Plug-In . SVG Version: 6.00 Build 0)  -->
<svg version="1.1" id="Layer_1" xmlns="http://www.w3.org/2000/svg" xmlns:xlink="http://www.w3.org/1999/xlink" x="0px" y="0px"
	 viewBox="0 0 24 24" style="enable-background:new 0 0 24 24;" xml:space="preserve">
<style type="text/css">
	.st0{fill:#FFFFFF;}
</style>
<path class="st0" d="M11.07,4c-0.31,0-0.75,0.15-1.33,0.46C8.11,5.27,7.09,6.96,7.15,8.78c0,2.72,2.66,7.44,4.32,8.96
	c0,0-2.79-4.65-2.99-8.63S11.14,4,11.14,4 M13,4c0,0,2.79,1.06,2.59,5.05c-0.2,3.98-2.99,8.63-2.99,8.63
	c1.66-1.46,4.25-6.17,4.32-8.9c0.07-1.86-0.97-3.59-2.66-4.38L13,4z M12,4l-0.33,0.13c-1.15,0.58-1.7,2.46-1.66,5.64
	c0.13,2.17,0.69,4.82,1.66,7.97h0.46c0.97-3.19,1.53-5.84,1.66-7.97c0.13-3.19-0.35-5.07-1.46-5.64L12,4z M8.68,4.66
	c0,0-3.05,1.33-2.46,4.85c0.79,3.08,2.43,5.89,4.71,8.1c0.33,0.33-3.92-4.32-4.32-8.43C6.42,7.65,6.89,5.93,8.61,4.8 M15.39,4.8
	c1.45,0.99,2.22,2.71,1.99,4.45c-0.4,4.12-4.65,8.76-4.32,8.43c2.29-2.21,3.92-5.02,4.71-8.1c0.6-3.52-2.39-4.71-2.39-4.71
	 M10.67,18.61L11,20h1.79l0.33-1.39H10.67z"/>
</svg>
