<svg version="1.1" xmlns="http://www.w3.org/2000/svg" x="0" y="0" viewBox="0 0 128 128" xml:space="preserve"><path fill="#663695" d="M64 0a64 64 0 1 0 0 128A64 64 0 0 0 64 0zM28.3 99.7a49.8 49.8 0 0 1-14.6-34.8l49.8 49.4a52 52 0 0 1-35.2-14.6zM75 112.9 15 53a50.3 50.3 0 0 1 89.7-18.7l-6.9 6a41.6 41.6 0 0 0-72.7 10l52.6 52.6A41.1 41.1 0 0 0 104.2 73h-22V64h32A50.3 50.3 0 0 1 75 113z"/><path fill="#FFF" d="M28.3 99.7a49.8 49.8 0 0 1-14.6-34.8l49.8 49.4a52 52 0 0 1-35.2-14.6zM75 112.9 15 53a50.3 50.3 0 0 1 89.7-18.7l-6.9 6a41.6 41.6 0 0 0-72.7 10l52.6 52.6A41.1 41.1 0 0 0 104.2 73h-22V64h32A50.3 50.3 0 0 1 75 113z"/></svg>