<svg version="1.1" xmlns="http://www.w3.org/2000/svg" x="0" y="0" viewBox="0 0 128 128" xml:space="preserve"><path fill="#F06A34" d="M21.6 118.5a17.4 17.4 0 0 1-9.7-6.5c-1-1.4-2-3.8-2.4-5.4C9 105 9 104.3 9 64.1c0-40 0-40.9.4-42.6 1.6-6 6.4-10.7 12.6-12 1.8-.5 81.6-.5 83.5-.1 5.2 1 9.3 4.2 11.7 8.9 1.9 3.7 1.7-.4 1.8 44.2 0 28.4 0 40.4-.2 41.9-.9 6.9-5.7 12.3-12.6 14-1.7.5-2.3.5-42.4.5-38.7 0-40.7 0-42.2-.4z"/><path fill="#FFF" d="M79.7 97.8c4.9-.7 8.8-2.6 12.4-6.4 2.6-2.6 4.3-5.6 5.4-9.4.4-1.6.4-2.4.5-11.8L98 58.9c-.3-1.2-1-2.3-2-2.8l-3.7-.4c-3-.1-3.4-.2-4.4-.8-1.5-.9-2-1.8-2-4.5 0-5-2-9.6-6.2-13.8-2.9-3-6.2-5-10-6.2-.8-.3-2.8-.4-9.5-.4-10.6-.2-13 0-16.5 1.5a21.7 21.7 0 0 0-13.1 15.3c-.4 1.3-.4 3.5-.5 15.8-.1 15.4 0 17.7 1 20.8a21 21 0 0 0 15.9 14.3c2.2.4 30 .5 32.8.1z"/><path fill="#F06A34" d="M50.6 55.4C48 54.6 47 51 49 49.1c1.2-1.3 1.5-1.3 9-1.3 6.6 0 6.8 0 7.8.5 1.4.7 2 1.7 2 3.3 0 1.5-.6 2.5-1.9 3.3-.7.5-1 .5-7.6.5l-7.7-.1zm-.3 24.4c-1.1-.5-2.1-1.8-2.3-3-.2-1.1.4-2.6 1.2-3.4 1.1-1 1.6-1 14.8-1 13.7 0 13.6 0 14.9 1.2a3.8 3.8 0 0 1-.8 6l-2.2.3-11.8.2c-10.4 0-13.3-.1-13.8-.3z"/></svg>