<svg version="1.1" xmlns="http://www.w3.org/2000/svg" x="0" y="0" viewBox="0 0 128 128" xml:space="preserve"><path fill="#FFF" d="M64 128A64 64 0 0 1 64 0a64 64 0 0 1 0 128z"/><g fill="#61DAFB"><circle cx="64" cy="64" r="9.9"/><path d="m101.7 47.6-6-2c.5-2.1 1-4.2 1.3-6.2 1.8-11.5-.2-19.6-5.7-22.7-1.7-1-3.5-1.4-5.6-1.4-6.1 0-13.8 4.5-21.7 12.1-7.8-7.6-15.6-12.1-21.7-12.1-2.1 0-3.9.4-5.6 1.4-5.5 3.3-7.5 11.4-5.7 22.8.3 2 .8 4.1 1.3 6.2-2.1.6-4.1 1.2-6 2C15.4 51.8 9.5 57.6 9.5 64s6 12.2 16.8 16.4l6 2c-.5 2.1-1 4.2-1.3 6.2-1.8 11.5.2 19.6 5.7 22.7 1.7 1 3.5 1.4 5.6 1.4 6.2 0 13.9-4.5 21.7-12.1 7.8 7.6 15.6 12.1 21.7 12.1 2.1 0 3.9-.4 5.6-1.4 5.6-3.2 7.6-11.3 5.7-22.7-.3-2-.8-4.1-1.3-6.2 2.1-.6 4.1-1.2 6-2 10.9-4.2 16.8-9.9 16.8-16.4 0-6.4-5.9-12.2-16.8-16.4zM88.8 21.1c3.6 2.1 4.8 8.5 3.3 17.7l-1.2 5.7a121 121 0 0 0-14.4-2.2c-3-4.2-6-7.9-9.1-11.3 6.4-6.4 13-10.7 18.3-10.7 1.2 0 2.2.3 3.1.8zm-9.7 51.6c-1.6 2.8-3.4 5.6-5.3 8.4-3.2.3-6.4.3-9.7.3-3.4 0-6.6-.1-9.7-.3A121.8 121.8 0 0 1 44.6 64c1.4-2.9 3-5.8 4.6-8.7 1.6-2.8 3.4-5.6 5.3-8.4 3.2-.3 6.4-.3 9.7-.3 3.4 0 6.6.1 9.7.3A121.8 121.8 0 0 1 83.7 64l-4.6 8.7zm7.2-2.9c1.3 3 2.3 6 3.3 9-3 .7-6.1 1.2-9.4 1.7 1-1.7 2.2-3.4 3.1-5.2l3-5.5zM64 93.4a104 104 0 0 1-6-7.2l6 .2 6-.2c-1.9 2.5-3.9 5-6 7.2zm-16.2-13c-3.3-.4-6.4-1-9.4-1.7 1-2.9 2-5.9 3.3-9 1 1.7 1.9 3.6 3 5.3 1 2 2.1 3.6 3.1 5.4zm-6.1-22.2c-1.3-3-2.3-6-3.3-9 3-.7 6.1-1.2 9.4-1.7-1 1.7-2.2 3.4-3.1 5.2l-3 5.5zM64 34.6a104 104 0 0 1 6 7.2l-6-.2-6 .2c1.9-2.5 3.9-5 6-7.2zm19.3 18.3-3.1-5.2c3.3.4 6.4 1 9.4 1.7-1 2.9-2 5.9-3.3 9-1-2-1.9-3.8-3-5.5zM35.9 38.8c-1.5-9.1-.3-15.6 3.3-17.7.9-.5 1.9-.8 3-.8 5.2 0 11.7 4.3 18.3 10.7-3 3.3-6.1 7.1-9.1 11.3-5 .4-9.8 1.2-14.4 2.2l-1.1-5.7zM14.4 64c0-4.1 5-8.4 13.7-11.7 1.7-.7 3.7-1.3 5.6-1.8 1.4 4.4 3.1 9 5.2 13.6-2.1 4.6-3.9 9.1-5.2 13.5-12.1-3.5-19.3-8.7-19.3-13.6zm24.8 42.9c-3.6-2.1-4.8-8.5-3.3-17.7l1.2-5.7c4.5 1 9.3 1.7 14.4 2.2 3 4.2 6 7.9 9.1 11.3-6.4 6.4-13 10.7-18.3 10.7-1.2 0-2.2-.3-3.1-.8zm52.9-17.7c1.5 9.1.3 15.6-3.3 17.7-.9.5-1.9.8-3 .8-5.2 0-11.7-4.3-18.3-10.7 3-3.3 6.1-7.1 9.1-11.3 5-.4 9.8-1.2 14.4-2.2l1.1 5.7zm7.8-13.5c-1.7.7-3.7 1.3-5.6 1.8-1.4-4.4-3.1-9-5.2-13.6 2.1-4.6 3.9-9.1 5.2-13.5 12 3.5 19.2 8.7 19.2 13.6.1 4.1-4.9 8.4-13.6 11.7z"/></g></svg>
